/* XPM */
static char *bitcoin16[] = {
/* columns rows colors chars-per-pixel */
"16 16 134 2 ",
"   c None",
".  c #383634",
"X  c #3A3736",
"o  c #3A3836",
"O  c #3D3A36",
"+  c #3F3D3B",
"@  c #403C38",
"#  c #403D3B",
"$  c #413E3C",
"%  c #45413D",
"&  c #48443F",
"*  c #4E4838",
"=  c #534C39",
"-  c #524C3C",
";  c #564F3E",
":  c #564F3F",
">  c #57503C",
",  c #5A533F",
"<  c #434040",
"1  c #464342",
"2  c #4B4742",
"3  c #4C4841",
"4  c #4E4A4A",
"5  c #504B4A",
"6  c #534F48",
"7  c #514D4A",
"8  c #524D4A",
"9  c #504C4C",
"0  c #534F4F",
"q  c #555046",
"w  c #595240",
"e  c #5C5542",
"r  c #57514B",
"t  c #55504D",
"y  c #57514D",
"u  c #57524E",
"i  c #585248",
"p  c #555151",
"a  c #575454",
"s  c #595450",
"d  c #5A5452",
"f  c #595555",
"g  c #615945",
"h  c #655C48",
"j  c #605A57",
"k  c #635C57",
"l  c #625C58",
"z  c #625C5B",
"x  c #655F5A",
"c  c #69604D",
"v  c #686152",
"b  c #6D6355",
"n  c #6A6456",
"m  c #726958",
"M  c #71685B",
"N  c #756B58",
"B  c #776C58",
"V  c #776C59",
"C  c #766C5F",
"Z  c #796D58",
"A  c #7A6E58",
"S  c #796F5F",
"D  c #7E735D",
"F  c #7D735E",
"G  c #666160",
"H  c #666263",
"J  c #676263",
"K  c #646266",
"L  c #6A6360",
"P  c #6A6463",
"I  c #736B65",
"U  c #706A66",
"Y  c #716A67",
"T  c #746C66",
"R  c #766E6A",
"E  c #776F6A",
"W  c #7A7163",
"Q  c #77706F",
"!  c #78706B",
"~  c #79716C",
"^  c #79716D",
"/  c #7B726E",
"(  c #787170",
")  c #7B7370",
"_  c #797272",
"`  c #797372",
"'  c #7C7574",
"]  c #72727D",
"[  c #7C787A",
"{  c #7E7B7C",
"}  c #817763",
"|  c #897D61",
" . c #897F65",
".. c #8A7E65",
"X. c #80766A",
"o. c #82776A",
"O. c #877C6B",
"+. c #837A6E",
"@. c #897E6A",
"#. c #8C7F6C",
"$. c #857E72",
"%. c #8B8067",
"&. c #8D8065",
"*. c #8E8266",
"=. c #8B816A",
"-. c #8D806C",
";. c #8B8073",
":. c #8F8576",
">. c #938774",
",. c #918576",
"<. c #918679",
"1. c #978B7C",
"2. c #978C7F",
"3. c #9A8D7B",
"4. c #9F9387",
"5. c #97948F",
"6. c #918E93",
"7. c #908E94",
"8. c #A49583",
"9. c #A59683",
"0. c #A09486",
"q. c #A89A87",
"w. c #A19588",
"e. c #A19589",
"r. c #A3978A",
"t. c #A4988B",
"y. c #AA9B88",
"u. c #B0A294",
"i. c #B1A69A",
"p. c #A1A0A4",
"a. c #B1AAA0",
"s. c #B5ACA0",
"d. c #BBB7B4",
"f. c #D0C9C2",
/* pixels */
"                                ",
"                                ",
"           .%.=.} n 6           ",
"      &.| *.%.F v q 3 2 7       ",
"    ..y.3.>.@.m i r j P ` 0     ",
"    A q.O.,.0.w.! Y L z _ 4     ",
"  Z D 8.s.5.$.4.E G K [ Q p f   ",
"  -.N 9.f.p.d.t.~ 7.] 6.( 9 H   ",
"  #.c V :.a.i.r./ ' { G 5 1 J   ",
"  B h , g S W 2.T y u % o < a   ",
"    > e ; C X.e.^ d t @ # X     ",
"    = w * M ;.+.k l 8 O $ .     ",
"      - : 1.u.4.R ) U & +       ",
"          b o.<.I x s           ",
"                                ",
"                                "
};
