/* XPM */
static char *bitcoin32[] = {
/* columns rows colors chars-per-pixel */
"32 32 129 2 ",
"   c None",
".  c #2C2925",
"X  c #312E2B",
"o  c #33302D",
"O  c #3C362A",
"+  c #3D382B",
"@  c #363433",
"#  c #383635",
"$  c #3B3836",
"%  c #3D3A39",
"&  c #423E3B",
"*  c #464036",
"=  c #46423D",
"-  c #49453F",
";  c #4F483C",
":  c #544C36",
">  c #534D3C",
",  c #57503E",
"<  c #59513E",
"1  c #464342",
"2  c #494541",
"3  c #4D4944",
"4  c #4E4A49",
"5  c #504B44",
"6  c #514D4C",
"7  c #575144",
"8  c #5D5542",
"9  c #5F5845",
"0  c #56514D",
"q  c #5B554A",
"w  c #5F5A4F",
"e  c #4B4B53",
"r  c #5A5552",
"t  c #5E5955",
"y  c #615743",
"u  c #625A46",
"i  c #635B4C",
"p  c #645D53",
"a  c #685F53",
"s  c #635D5B",
"d  c #6D6147",
"f  c #6C634D",
"g  c #70654E",
"h  c #75684A",
"j  c #786B4C",
"k  c #666051",
"l  c #6B6354",
"z  c #67615D",
"x  c #6A635E",
"c  c #706654",
"v  c #716857",
"b  c #70675B",
"n  c #736B5C",
"m  c #786E5B",
"M  c #7B725E",
"N  c #666263",
"B  c #6C6664",
"V  c #6F6865",
"C  c #686669",
"Z  c #6D696A",
"A  c #726A65",
"S  c #796F62",
"D  c #756E6C",
"F  c #7D7364",
"G  c #77706F",
"H  c #7A726D",
"J  c #6F6F78",
"K  c #706F77",
"L  c #777171",
"P  c #7A7372",
"I  c #7D797A",
"U  c #82765D",
"Y  c #85785A",
"T  c #887B5D",
"R  c #817663",
"E  c #847964",
"W  c #8A7E64",
"Q  c #867B6C",
"!  c #8A7F6D",
"~  c #8A7F70",
"^  c #847F7F",
"/  c #8E8165",
"(  c #8D816C",
")  c #91846E",
"_  c #8C8172",
"`  c #8B867D",
"'  c #908576",
"]  c #978976",
"[  c #998B76",
"{  c #958A7C",
"}  c #9B8D7B",
"|  c #9F917C",
" . c #A3947F",
".. c #807F80",
"X. c #888486",
"o. c #818089",
"O. c #8A878A",
"+. c #8C8A8D",
"@. c #9A8E81",
"#. c #9D9183",
"$. c #938F91",
"%. c #95949B",
"&. c #9B9A9C",
"*. c #A49684",
"=. c #A79887",
"-. c #A89987",
";. c #A3978A",
":. c #A5998C",
">. c #A99C8D",
",. c #AA9E90",
"<. c #AEA294",
"1. c #B2A494",
"2. c #9E9DA4",
"3. c #B0AEAA",
"4. c #BDB4AA",
"5. c #A9A8B0",
"6. c #BFBBB5",
"7. c #B1B1BB",
"8. c #CDC7BF",
"9. c #B8B8C2",
"0. c #C7C5C6",
"q. c #C7C7C9",
"w. c #D4CEC7",
"e. c #D2D1D3",
"r. c #DDD9D3",
"t. c #ECE8E5",
"y. c #EDEBE9",
"u. c #F1F1F1",
"i. c #F7F7F8",
/* pixels */
"                                                                ",
"                                                                ",
"                                                                ",
"                              ( (                               ",
"                      W E / ) ) ( E b l w                       ",
"              W T / / ) ( ( / E M b k w q 5 2 2 3               ",
"          U T / / / / E / / E M v k q 7 2 2 3 3 3 1 -           ",
"        j [ ) U M U E / / F m l k q 3 - - - - - 4 t z $         ",
"        h  .=.*.} ( E E E b l i 7 5 5 1 5 6 s B G P C $         ",
"        h | =.*.-.>.;.#.} ' ( m q i s s D H G P L P C $         ",
"        u  .-.*.c { >.>.,.>.,.;.H H H H H H B 6 D P C #         ",
"    d y y [ -.*.E i l E { ;.,.;.H H D B r 4 1 r L L B # 1 6     ",
"    g u u [ =.*.,.6.` F p E >.:.H D 0 = 0 N O.I K P B % 3 0     ",
"    [ [ g [ =.*.;.t.e.I 3.b #.:.H B 6 O.o.e %.I H P B 1 C D     ",
"    *.( , [ =.*.4.u...K q.0.*.:.H A +.9.K e 2.O.D P B # N P     ",
"    | c : } >.*.4.i.&.C 0.w.;.;.H H $.%.e J 7.O.D P C @ 6 K     ",
"    | d : m ( | :.4.r.y.4.,.:.:.H A H ^ 5.2...G B s e o 6 L     ",
"    *.| q < 9 y l b Q @.:.:.,.:.H H D H A p r 5 & $ @ $ Z L     ",
"    E ) d < 9 y y y Q _ _ _ #.:.H A s s s s 5 & & $ @ 1 C t     ",
"    y y < 7 9 y y k _ k b Q { _ B A p 5 1 s & 2 & & @ & 1 4     ",
"        < < q < 9 < ( b * 5 :.:.H A # X 6 s & & & % # %         ",
"        < , , < 9 + S 1.>.@.:.:.H H B H Q r . 1 & % % #         ",
"        , 7 , , q O * k F { :.,.H D s 0 1 o . & & % % #         ",
"        : : : : q + F #.G k i z 5 & 5 r Z r X 1 % % % #         ",
"        : : : : q : _ >.>.<.;._ s A P G P z & - 1 % % @         ",
"          - : 5 5 : ' >.:.>.,.:.G D H D G B = - & % %           ",
"              : : 5 E #.>.>.,.;.Q D G H D s 1 1 &               ",
"                    - 7 i F { ;.H A p q 5 1                     ",
"                            q p p q                             ",
"                                                                ",
"                                                                ",
"                                                                "
};
