/* XPM */
static char *bitcoin64[] = {
/* columns rows colors chars-per-pixel */
"64 64 179 2 ",
"   c None",
".  c #0E0D09",
"X  c #0C0B07",
"o  c #100F0A",
"O  c #14120C",
"+  c #18160D",
"@  c #1D1A11",
"#  c #24211D",
"$  c #282622",
"%  c #2B2926",
"&  c #24222B",
"*  c #2D2A2B",
"=  c #252226",
"-  c #322E24",
";  c #312E2A",
":  c #34312C",
">  c #3A352C",
",  c #3C382F",
"<  c #2B2A33",
"1  c #353332",
"2  c #393636",
"3  c #3C3936",
"4  c #393639",
"5  c #3D3B39",
"6  c #36353E",
"7  c #433E35",
"8  c #413E3B",
"9  c #464136",
"0  c #4B4435",
"q  c #4F4837",
"w  c #45423D",
"e  c #49453E",
"r  c #4F483A",
"t  c #534C3C",
"y  c #57503E",
"u  c #59513E",
"i  c #403E44",
"p  c #464241",
"a  c #4A4642",
"s  c #4D4943",
"d  c #46454D",
"f  c #494648",
"g  c #4D4949",
"h  c #524D44",
"j  c #524D4B",
"k  c #565044",
"l  c #5C5443",
"z  c #5F5845",
"x  c #56514C",
"c  c #5B554B",
"v  c #5F584B",
"b  c #524F54",
"n  c #565252",
"m  c #5A5553",
"M  c #5E5955",
"N  c #57565E",
"B  c #5D595A",
"V  c #605743",
"C  c #625A45",
"Z  c #645C4B",
"A  c #685F4A",
"S  c #635D52",
"D  c #635D5B",
"F  c #6B614C",
"G  c #70664C",
"H  c #74694F",
"J  c #676152",
"K  c #6B6355",
"L  c #66605E",
"P  c #6B635B",
"I  c #726754",
"U  c #756A55",
"Y  c #796D55",
"T  c #706759",
"R  c #746C5B",
"E  c #786E5B",
"W  c #7C7155",
"Q  c #7C725D",
"!  c #5D5C65",
"~  c #656162",
"^  c #6B6563",
"/  c #6F6865",
"(  c #6E6969",
")  c #726A64",
"_  c #796E61",
"`  c #756E6B",
"'  c #7C7363",
"]  c #77706F",
"[  c #79716E",
"{  c #686870",
"}  c #746F70",
"|  c #706F78",
" . c #777170",
".. c #797272",
"X. c #7D7778",
"o. c #7D797A",
"O. c #77767C",
"+. c #82765D",
"@. c #867A5E",
"#. c #897C5E",
"$. c #817662",
"%. c #857A64",
"&. c #8A7E64",
"*. c #817769",
"=. c #857B6B",
"-. c #897E6B",
";. c #8A7F73",
":. c #827D7D",
">. c #8E8165",
",. c #8C816B",
"<. c #90846C",
"1. c #8D8274",
"2. c #8C8679",
"3. c #918576",
"4. c #968977",
"5. c #998A77",
"6. c #908579",
"7. c #958A7C",
"8. c #9B8E7D",
"9. c #9F907D",
"0. c #A0927F",
"q. c #787780",
"w. c #7B7B84",
"e. c #858285",
"r. c #86858E",
"t. c #8C898A",
"y. c #998E81",
"u. c #948E82",
"i. c #9E9283",
"p. c #8B8B92",
"a. c #96959D",
"s. c #9A989F",
"d. c #919094",
"f. c #A59685",
"g. c #A69887",
"h. c #A99986",
"j. c #A3978A",
"k. c #A69A8C",
"l. c #A99B8D",
"z. c #A79D91",
"x. c #AA9E90",
"c. c #A39F9E",
"v. c #ADA193",
"b. c #A6A198",
"n. c #ADA59B",
"m. c #B4A899",
"M. c #9F9EA4",
"N. c #9F9FA8",
"B. c #A09FA5",
"V. c #A3A2A3",
"C. c #A4A3AB",
"Z. c #A8A7A9",
"A. c #ACAAA6",
"S. c #B6ACA1",
"D. c #BAB4AD",
"F. c #ACACB3",
"G. c #AFAFB8",
"H. c #B2B1B2",
"J. c #BDBAB4",
"K. c #B4B4BC",
"L. c #B8B7B8",
"P. c #C2BAB1",
"I. c #C8C0B7",
"U. c #BABAC3",
"Y. c #C9C6C0",
"T. c #CDCCCC",
"R. c #C5C4C5",
"E. c #D0CDC9",
"W. c #D5D3CF",
"Q. c #D4D3D2",
"!. c #DFDDD9",
"~. c #E7E4DF",
"^. c #E5E3E2",
"/. c #E9E7E5",
"(. c #EBEBEA",
"). c #F0EEED",
"_. c #F3F2EF",
"`. c #F5F4F4",
"'. c #FFFEFE",
/* pixels */
"                                                                                                                                ",
"                                                                                                                                ",
"                                                                                                                                ",
"                                                                                                                                ",
"                                                                                                                                ",
"                                                                                                                                ",
"                                                          =.,.,.,.,.=.                                                          ",
"                                                    ,.&.,.<.,.,.,.,.,.%.' _                                                     ",
"                                            %.&.%.,.,.,.,.%.%.,.=.=.%.' ' ' T J S m                                             ",
"                                      &.&.>.<.,.>.>.>.,.,.,.,.,.%.' Q E T T J S S m c h a a                                     ",
"                              %.#.>.>.>.&.&.&.&.%.>.%.,.>.,.%.>.' Q E T J J S c c h h a h a a h s                               ",
"                      @.&.#.>.>.>.#.&.&.&.&.&.&.,.%.>.>.,.%.%.' Q R R J J v c k h h a e a a a a s s s h g                       ",
"                  +.#.&.#.#.#.&.&.@.>.&.%.>.>.%.>.>.>.=.%.%.Q E R I J J v c k h a e h e a a a h s s s s h s 5                   ",
"                  W Y Y W @.#.#.#.&.@.&.%.%.,.>.>.=.>.%.%.Q E R I J J v c k h s e a e a e a a a s a i 5 3 5 5 1                 ",
"                  W 5.4.&.E Y W @.@.@.>.>.>.%.>.>.>.%.' Q R U K J S v x k h e e a e e a a a e e 8 8 a g L ( w                   ",
"                  Y f.h.g.f.3.&.Q W W Q @.%.>.>.%.%.Q Q U R K J v v k k s e e e a e a a e e e a x ~ ] ..X.} 8                   ",
"                  Y 9.g.g.g.h.g.f.3.*._ E E $.%.%.+.E R I K Z v l c k h 8 a a s a a a a a v ~ ` ..........( 5                   ",
"                  H 0.g.g.g.g.g.g.g.g.j.3.;.$.E Q $.Q E U Z v v k s q i k k s s h j D ^ ` [ | ....] ........5                   ",
"                  Y 9.g.g.g.g.g.g.g.g.g.l.l.g.i.3.6.=.=.%.$.R Z k k c c Z m S L ) [ [ [ | [ ` ..} ..] ....( i                   ",
"                  H 9.g.g.0.g.0.f.g.g.l.j.g.g.x.x.x.h.j.i.y.4.,.D D L ) ) ` [ [ [ [ ` ` [ [ ..` ( ..` ....` 8                   ",
"                  H 9.g.g.g.l.4.A T f.g.g.g.l.l.x.h.z.j.z.x.x.j.*.` [ [ [ ` ` ` | [ ` [ ..` x a L ........( 5                   ",
"                V H 9.g.g.g.g.;.Z Z *.f.g.x.l.l.j.j.j.z.z.j.x.j.*.` ` ` | [ [ ` [ [ [ [ ` D a 8 ~ ..] ] ..( 5 2                 ",
"          F C u u G 9.f.g.g.g.5.E Z Z A T *.7.g.h.x.j.x.l.j.z.j.*.` ` ` [ ) [ [ [ ^ m g a w w n ( ........} 3 1 5 a g           ",
"      C G F C u u G 9.g.g.g.g.g.f.A l l C c h Z R 6.j.x.j.x.z.j.` ` [ ` [ ) D c 8 8 8 8 w w a ` ..] ] ....} 5 1 5 a g b g       ",
"      C V V A C C A 0.0.g.g.f.g.y.E.J.u.' Z v C z v K k.x.h.x.j.[ ` ` *.` h 8 8 w 8 a x ^ r.a.] ..` ......` 5 5 a f a a f       ",
"      F H C V V C G 0.h.g.g.g.g.j.m.`.^.H.P.A.2.K Z Z ;.j.z.z.j.[ ` ` ` m 8 8 h ! q.p.r.N.K.:.] ] ..] ....` 5 5 a a g n d       ",
"      Y g.9.9.<.G A 0.g.g.g.g.g.g.f.~.(.V.p.e.Z.Q.c.z Z 7.x.x.j.[ ` ` ^ 8 8 ` B.q.{ i & w.F.` ] ..` ......( 4 i ~ ( | ..m       ",
"      Y h.g.0.;.G C 0.g.g.g.g.g.j.x.~.'.'.^.i * H.!.R S y.x.z.j.*.) ` ^ i m B.B.r.N.d < w.F.X...` ........{ 4 a ~ ..O...n       ",
"      Y g.f.9.q q C 9.g.g.g.g.g.f.^.'.).T.N R.b V.'.(.y.j.k.z.j.*.` ` ` _ F.U.U.F.! F.b q.U.Z.] ..] ] ] ..` 5 1 2 ` ....m       ",
"      Y g.f.9.u q A 9.g.g.0.g.g.y.(.'.L.8 i F.~ V.'.(.x.k.k.z.k.` ` ` ` ` B.K.K.p.< ! & w.U.F.` ..| ......` 4 1 4 ` O...m       ",
"      E g.9.-.u q A 0.h.g.g.g.g.f.(.'.T.g 4 * * V.'.(.x.h.k.x.k.*.} ` ` ` C.U.r.& & & 4 p.U.F.] ` ..] ....` 5 ; 5 ~ ` O.N       ",
"      Y 0.&.u u q C 9.h.g.g.0.g.y.(.'.'.'.T.B.~ b.`.).k.z.z.k.j.` ` *.` ` B.G.:.d | a.G.U.U.F.| ` ....` [ | 5 1 i 5 D O.m       ",
"      Y h.=.u u 0 C -.f.g.g.g.g.f.n.Y.^.'.'.'.'.P.h.S.x.j.l.z.j.*.} ` ` ` :.} :.U.U.U.G.B.d.:.` ` ......[ L 4 : i i ~ O.N       ",
"      Y h.5.Y u 7 C C C R *.3.5.f.f.f.f.k.D.Q.).P.j.j.j.x.j.x.j.` ` *.` ` ` *.e.F.s.r.:.` ` ` *.( ^ D i 8 4 4 : 8 n ) O.m       ",
"      Y g.g.0.u 0 V C V C z C A K ' ;.5.f.j.f.j.x.x.j.x.j.x.x.j.*.` ` ` ` ` ` } ` ` ` *.^ P m j 8 8 8 4 1 1 4 * 4 | ..[ m       ",
"      +.h.0.g.5.V u u z z C C C C Z Z K K _ 2.f.x.x.j.x.j.x.z.j.} ` ` ` ` } *.} ` ~ m i i i 8 8 8 8 8 8 8 1 1 8 ^ [ ..:.m       ",
"      I 0.0.h.h.C u u V C C C C Z C A F ' $.I K _ ;.i.z.x.h.z.j.*.` *.*.*.` D x i j M m k i 8 8 8 8 8 7 4 1 1 i ....[ | m       ",
"      C F G Y %.C V u u u z C C C Z Z C 3.h.k.y.;.E R ' 3.j.x.j.*.} ^ P n j x D ` *.*.P 8 8 k 8 8 8 8 1 4 1 1 8 D m j s a       ",
"      C C C C C u u u V z z z C C z Z z =.f.K ;.y.x.j.7.=.' $.2.~ B M M ` *.*.^ m i / R 8 k k 8 8 8 8 8 8 4 1 8 a f a d d       ",
"            C C u u u u u u z z Z C C C ;.y.7 7 e v _ 7.x.j.y.;.P / } *.P i 7 < : : P R i 8 8 8 8 8 8 1 1 1 1 8 d f             ",
"              C C t u u u u z z z C C z =.y.a 3 , 7 7 s j.x.x.z.*.*.} ( 4 * * * * ; *.B 8 i 8 k w 8 5 3 3 2 1 8 a               ",
"              Z C t t u u u t z z z C h $.h.3.R e 2 , z k.k.z.j.*.( } *.i < $ > s P *.B 8 8 8 8 8 8 5 5 2 4 1 w d               ",
"                  u u t u t z z z z t @ T h.h.x.h.y.=.[ k.x.z.k.*.( ( *.i B ~ } | *.*.i + 7 t i 8 8 5 3 5 1 2 5                 ",
"                  u t u u z t z z z t o K m.x.k.k.k.x.x.z.h.z.k.*.*.( } *.| *.*.*.*.X.n O 7 i 8 8 8 5 5 5 2 2                   ",
"                  u t t t u u u k z t + > T 3.j.h.x.x.h.z.j.x.j.*.{ *.*.( *.*.*.*.! j = O 8 k 8 8 8 5 3 5 2 2                   ",
"                  u t t t t u k k z q + 2 7 - > z [ y.x.x.x.x.z.*.} *.*.*.~ j 8 = & < < . 7 8 i w 5 5 5 2 2 4                   ",
"                  t t t t t t u k z q O K h.3.R h > - 7 D ;.j.h.| *.B i < = = < j ! *.b . 7 i 8 w 5 5 3 5 2 3                   ",
"                  t q t t t t u u k h + K m.h.x.h.y.;.K 9 - > h 4 = = = i B $.*.*.*.*.i . 7 8 8 8 8 8 3 3 2 2                   ",
"                  t r r t t t t u z k 0 _ h.k.k.k.h.x.x.j.u.[ j 7 c D ` [ [ [ ` [ ] [ M 3 e w w w 3 5 3 2 2 3                   ",
"                  t q q r t t t t h z r [ x.k.j.k.h.z.x.x.x.x.h.[ [ [ ` ` [ ` [ ` ] [ D w a w w 5 w 5 5 2 2 2                   ",
"                  r 0 r r t t t t y h t %.x.k.k.k.k.k.k.z.j.z.j.[ ` ` ` ` [ ` ` [ ` [ L e w w w w w 5 3 3 2 2 2                 ",
"                  r t q 0 r t r t t y t =.h.h.k.h.k.z.k.h.x.j.j.[ ` ` [ ` ` [ ` [ ] ..L e a w w 5 5 7 5 5 3 4                   ",
"                    0 0 e t t t t t h t ;.x.h.k.z.h.k.x.z.k.z.j.[ ` [ ) ` [ ` ` ` ` ..^ e a w w w 8 8 5 3 2                     ",
"                            r e t t y t R 7.k.h.x.x.k.j.x.k.z.j.[ [ ` [ [ [ ` [ ..` / m e a a w w 8                             ",
"                                  t h t h k v K =.5.z.x.x.j.x.j.[ ) [ [ [ [ ^ S x j h s a w a                                   ",
"                                          t h t h h v _ 6.j.x.z.[ [ _ D m h a h s h s                                           ",
"                                                  z h h k v R ;.) S v j z j x                                                   ",
"                                                        z x v Z S Z v m                                                         ",
"                                                                                                                                ",
"                                                                                                                                ",
"                                                                                                                                ",
"                                                                                                                                ",
"                                                                                                                                ",
"                                                                                                                                "
};
